<svg height="512pt" viewBox="0 -9 512 512" width="512pt" xmlns="http://www.w3.org/2000/svg"><path d="m512 105.929688v351.074218c-.039062 20.605469-16.734375 37.300782-37.339844 37.339844h-437.320312c-20.605469-.039062-37.3007815-16.734375-37.339844-37.339844v-351.074218l35.308594-8.828126h441.382812zm0 0" fill="#90bae1"/><path d="m512 37.339844v68.589844h-512v-68.589844c.0390625-20.605469 16.734375-37.3007815 37.339844-37.339844h437.320312c20.605469.0390625 37.300782 16.734375 37.339844 37.339844zm0 0" fill="#f29c1f"/><path d="m70.621094 52.964844c0 9.75-7.90625 17.65625-17.65625 17.65625s-17.65625-7.90625-17.65625-17.65625 7.90625-17.65625 17.65625-17.65625 17.65625 7.90625 17.65625 17.65625zm0 0" fill="#e64c3c"/><path d="m141.242188 52.964844c0 9.75-7.90625 17.65625-17.65625 17.65625s-17.65625-7.90625-17.65625-17.65625 7.90625-17.65625 17.65625-17.65625 17.65625 7.90625 17.65625 17.65625zm0 0" fill="#f3d55b"/><path d="m211.863281 52.964844c0 9.75-7.90625 17.65625-17.65625 17.65625s-17.65625-7.90625-17.65625-17.65625 7.90625-17.65625 17.65625-17.65625 17.65625 7.90625 17.65625 17.65625zm0 0" fill="#14a085"/><path d="m441.378906 35.308594h17.65625c4.875 0 8.828125 3.953125 8.828125 8.828125v17.65625c0 4.875-3.953125 8.828125-8.828125 8.828125h-17.65625c-4.875 0-8.828125-3.953125-8.828125-8.828125v-17.65625c0-4.875 3.953125-8.828125 8.828125-8.828125zm0 0" fill="#e57e25"/><path d="m123.585938 335.449219c0 14.625-11.855469 26.480469-26.484376 26.480469-14.625 0-26.480468-11.855469-26.480468-26.480469 0-14.628907 11.855468-26.484375 26.480468-26.484375 14.628907 0 26.484376 11.855468 26.484376 26.484375zm0 0" fill="#7f8c8d"/><path d="m211.863281 335.449219c0 14.625-11.859375 26.480469-26.484375 26.480469s-26.480468-11.855469-26.480468-26.480469c0-14.628907 11.855468-26.484375 26.480468-26.484375s26.484375 11.855468 26.484375 26.484375zm0 0" fill="#7f8c8d"/><path d="m226.5 185.378906c2.785156 0 5.410156 1.320313 7.074219 3.554688 1.667969 2.234375 2.179687 5.125 1.378906 7.796875l-4.640625 15.574219-5.210938 17.210937-11.351562 37.84375c-1.117188 3.738281-4.554688 6.296875-8.457031 6.296875h-143.5l-6.621094-88.277344zm0 0" fill="#e6e7e8"/><path d="m230.3125 212.304688-5.210938 17.210937h-110.34375c-4.875 0-8.828124-3.949219-8.828124-8.824219 0-4.878906 3.953124-8.828125 8.828124-8.828125h112.992188c.875.007813 1.738281.15625 2.5625.441407zm0 0" fill="#d1d4d1"/><g fill="#f3d55b"><path d="m317.792969 176.550781c0 9.75-7.90625 17.65625-17.65625 17.65625s-17.652344-7.90625-17.652344-17.65625 7.902344-17.652343 17.652344-17.652343 17.65625 7.902343 17.65625 17.652343zm0 0"/><path d="m317.792969 247.171875c0 9.75-7.90625 17.65625-17.65625 17.65625s-17.652344-7.90625-17.652344-17.65625 7.902344-17.65625 17.652344-17.65625 17.65625 7.90625 17.65625 17.65625zm0 0"/><path d="m317.792969 317.792969c0 9.75-7.90625 17.65625-17.65625 17.65625s-17.652344-7.90625-17.652344-17.65625 7.902344-17.65625 17.652344-17.65625 17.65625 7.90625 17.65625 17.65625zm0 0"/></g><path d="m353.101562 185.378906h114.761719c4.875 0 8.828125-3.953125 8.828125-8.828125s-3.953125-8.828125-8.828125-8.828125h-114.761719c-4.875 0-8.824218 3.953125-8.824218 8.828125s3.949218 8.828125 8.824218 8.828125zm0 0" fill="#e6e7e8"/><path d="m467.863281 238.34375h-114.761719c-4.875 0-8.824218 3.953125-8.824218 8.828125s3.949218 8.828125 8.824218 8.828125h114.761719c4.875 0 8.828125-3.953125 8.828125-8.828125s-3.953125-8.828125-8.828125-8.828125zm0 0" fill="#e6e7e8"/><path d="m467.863281 308.964844h-114.761719c-4.875 0-8.824218 3.953125-8.824218 8.828125s3.949218 8.828125 8.824218 8.828125h114.761719c4.875 0 8.828125-3.953125 8.828125-8.828125s-3.953125-8.828125-8.828125-8.828125zm0 0" fill="#e6e7e8"/><path d="m158.898438 406.070312h194.203124c14.628907 0 26.484376 11.855469 26.484376 26.480469 0 14.628907-11.855469 26.484375-26.484376 26.484375h-194.203124c-14.628907 0-26.484376-11.855468-26.484376-26.484375 0-14.625 11.855469-26.480469 26.484376-26.480469zm0 0" fill="#14a085"/><path d="m220.691406 317.792969h-141.242187c-14.628907 0-26.484375-11.855469-26.484375-26.484375l-8.289063-132.410156h-9.367187c-4.875 0-8.824219-3.953126-8.824219-8.828126s3.949219-8.828124 8.824219-8.828124h17.65625c4.671875-.011719 8.539062 3.617187 8.828125 8.28125l8.828125 141.238281c-.101563 2.421875.777344 4.785156 2.4375 6.550781 1.664062 1.761719 3.964844 2.78125 6.390625 2.824219h141.242187c4.875 0 8.824219 3.953125 8.824219 8.828125s-3.949219 8.828125-8.824219 8.828125zm0 0" fill="#d1d4d1"/></svg>