<svg height="512" viewBox="0 0 512 512" width="512" xmlns="http://www.w3.org/2000/svg"><path d="m136 208.33v79.3a48.014 48.014 0 0 1 -20.1 39.06l-35.9 25.64-35.9-25.64a48.017 48.017 0 0 1 -20.1-39.06v-79.3a56.013 56.013 0 0 1 86.09-47.24 56.576 56.576 0 0 1 9.51 7.64 55.862 55.862 0 0 1 16.4 39.6z" fill="#7eb457"/><path d="m136 208.33v79.3a48.014 48.014 0 0 1 -20.1 39.06l-35.9 25.64-35.9-25.64a48.065 48.065 0 0 1 -10.81-10.68c28.32-33.38 58.31-83.08 76.8-154.92a56.576 56.576 0 0 1 9.51 7.64 55.862 55.862 0 0 1 16.4 39.6z" fill="#77ad50"/><path d="m106.344 258.677-18.344 18.344v-33.375l29.656-29.656-11.312-11.313-18.344 18.344v-36.688h-16v36.688l-18.344-18.344-11.312 11.313 29.656 29.656v33.375l-18.344-18.344-11.312 11.313 29.656 29.656v92.687h16v-92.687l29.656-29.656z" fill="#88c25e"/><path d="m24 368v64 64h200v-64-64z" fill="#7a432a"/><path d="m63.306 496h160.694v-64-64h-74.49z" fill="#743b20"/><path d="m48 456h16v16h-16z" fill="#61311b"/><path d="m48 392h16v16h-16z" fill="#61311b"/><path d="m24 424h200v16h-200z" fill="#61311b"/><path d="m152 336a31.991 31.991 0 0 1 -32 32h-64a32 32 0 1 1 0-64h64a32 32 0 0 1 32 32z" fill="#ffb531"/><path d="m152 336a31.991 31.991 0 0 1 -32 32h-64a32.013 32.013 0 0 1 -11.24-2.03 385.645 385.645 0 0 0 70.04-61.97h5.2a32 32 0 0 1 32 32z" fill="#ffa912"/><path d="m56 304h16v24h-16z" fill="#f7a116"/><path d="m96 328h16v16h-16z" fill="#f7a116"/><path d="m416 264v88h-192v-88h56v-48h80v48z" fill="#fec9a3"/><path d="m248 312h48v48h-48z" fill="#ea4a3b"/><path d="m200 312h48v48h-48z" fill="#d93e30"/><path d="m344 312h48v48h-48z" fill="#ea4a3b"/><path d="m344 360v-48h-4.8l-19.2 32-19.2-32h-4.8v48z" fill="#d93e30"/><path d="m200 312v48h-32v-40a55.49 55.49 0 0 1 .58-8z" fill="#ea4a3b"/><path d="m392 312h48v48h-48z" fill="#d93e30"/><path d="m472 320v40h-32v-48h31.42a55.49 55.49 0 0 1 .58 8z" fill="#ea4a3b"/><path d="m248 360h48v48h-48z" fill="#fc685b"/><path d="m344 360h48v48h-48z" fill="#fc685b"/><path d="m168 360h32v48h-32z" fill="#fc685b"/><path d="m200 360h48v48h-48z" fill="#f35244"/><path d="m296 360h48v48h-48z" fill="#f35244"/><path d="m392 360h48v48h-48z" fill="#f35244"/><path d="m440 360h32v48h-32z" fill="#fc685b"/><path d="m296 312v-8l-24-40h-24v48z" fill="#fc685b"/><path d="m344 312h48v-48h-24l-24 40z" fill="#fc685b"/><path d="m296 304v8h4.8z" fill="#f35244"/><path d="m344 304-4.8 8h4.8z" fill="#f35244"/><path d="m440 269.4v42.6h-48v-48h24a55.707 55.707 0 0 1 24 5.4z" fill="#f35244"/><path d="m471.42 312h-31.42v-42.6a56.028 56.028 0 0 1 31.42 42.6z" fill="#fc685b"/><path d="m248 408h48v48h-48z" fill="#ea4a3b"/><path d="m248 408v48h-24v-24h-24v-24z" fill="#d93e30"/><path d="m344 408h48v48h-48z" fill="#ea4a3b"/><path d="m296 408h48v48h-48z" fill="#d93e30"/><path d="m168 408h32v24h-32z" fill="#ea4a3b"/><path d="m392 408v48h24v-24h24v-24z" fill="#d93e30"/><path d="m440 408h32v24h-32z" fill="#ea4a3b"/><path d="m248 456h48v40h-48z" fill="#fc685b"/><path d="m344 456h48v40h-48z" fill="#fc685b"/><g fill="#f35244"><path d="m224 456h24v40h-24z"/><path d="m296 456h48v40h-48z"/><path d="m392 456h24v40h-24z"/><path d="m248 264v48h-48v-42.6a55.707 55.707 0 0 1 24-5.4z"/></g><path d="m168.58 312h31.42v-42.6a56.028 56.028 0 0 0 -31.42 42.6z" fill="#fc685b"/><path d="m416 391.667h72v40h-72z" fill="#f35244"/><path d="m168 487.667a56 56 0 0 0 56-56h-56z" fill="#fec093"/><path d="m416 431.667h56v64h-56z" fill="#fec9a3"/><path d="m448 431.667h24v64h-24z" fill="#fec093"/><path d="m416 431.667h56v16h-56z" fill="#fec093"/><path d="m221.65 447.667a55.946 55.946 0 0 0 2.35-16h-56v16z" fill="#feb784"/><path d="m224 264h32v79.67h-32z" fill="#82462a"/><path d="m384 264h32v79.67h-32z" fill="#82462a"/><path d="m224 343.667v56 96h192v-96-56z" fill="#95573a"/><path d="m273.6 495.667h142.4v-96-56h-51.2z" fill="#8f4d2e"/><path d="m248 367.667h16v16h-16z" fill="#c7c7c5"/><path d="m376 367.667h16v16h-16z" fill="#c7c7c5"/><path d="m256 407.667h128v88h-128z" fill="#a36548"/><path d="m152 391.667h72v40h-72z" fill="#f35244"/><path d="m136 191.667h32v304h-32z" fill="#95573a"/><path d="m210.344 18.01a63.065 63.065 0 0 0 -18.344 44.282v65.375a23.96 23.96 0 0 1 -16 22.525v-87.9a46.947 46.947 0 0 1 13.656-32.969l-11.312-11.313a63.065 63.065 0 0 0 -18.344 44.282v89.375h-16v-89.375a46.947 46.947 0 0 1 13.656-32.969l-11.312-11.313a63.065 63.065 0 0 0 -18.344 44.282v87.9a23.96 23.96 0 0 1 -16-22.525v-65.375a46.947 46.947 0 0 1 13.656-32.969l-11.312-11.313a63.065 63.065 0 0 0 -18.344 44.282v65.375a40.047 40.047 0 0 0 40 40h32a40.047 40.047 0 0 0 40-40v-65.375a46.947 46.947 0 0 1 13.656-32.969z" fill="#c7c7c5"/><path d="m136 159.667h32v32h-32z" fill="#c7c7c5"/><path d="m138.229 383.667h29.771a16 16 0 0 1 16 16v48a16 16 0 0 1 -16 16h-29.771a18.229 18.229 0 0 1 -18.229-18.23v-43.537a18.229 18.229 0 0 1 18.229-18.233z" fill="#fec9a3"/><rect fill="#7a432a" height="32" rx="16" width="240" x="200" y="111.667"/><path d="m392 67.506v44.161h-144v-44.161c0-20.4 6.19-31.969 16.5-38.839a29.782 29.782 0 0 1 16.51-5h5.98a29.745 29.745 0 0 1 16.51 5 29.725 29.725 0 0 0 33 0 29.782 29.782 0 0 1 16.51-5h5.98a29.786 29.786 0 0 1 10.43 1.89 29.47 29.47 0 0 1 6.08 3.11 33.1 33.1 0 0 1 12.12 14.35c2.83 6.299 4.38 14.29 4.38 24.489z" fill="#7a432a"/><path d="m392 67.506v44.161h-114.49c29.51-18.081 64.09-45.661 91.91-86.11a29.47 29.47 0 0 1 6.08 3.11 33.1 33.1 0 0 1 12.12 14.35c2.83 6.299 4.38 14.29 4.38 24.489z" fill="#743b20"/><path d="m392 103.667v88a72 72 0 0 1 -70.97 71.99c-.34.01-.69.01-1.03.01a72.006 72.006 0 0 1 -72-72v-88z" fill="#fec9a3"/><path d="m392 103.667v88a72 72 0 0 1 -70.97 71.99 71.983 71.983 0 0 0 38.97-63.99v-96z" fill="#fec093"/><path d="m248 79.667h144v32h-144z" fill="#a36548"/><path d="m360 79.667h32v32h-32z" fill="#95573a"/><path d="m352 271.667h-64a40 40 0 0 1 -40-40v-80l40 32h64l40-32v80a40 40 0 0 1 -40 40z" fill="#7a432a"/><path d="m352 271.667h-64a40 40 0 0 1 -40-40v-80l40 32h64l40-32v80a40 40 0 0 1 -40 40z" fill="#7a432a"/><path d="m360 177.267v54.4a40 40 0 0 1 -40 40h32a40 40 0 0 0 40-40v-80z" fill="#743b20"/><path d="m400 191.667h-8v-48h8a24 24 0 0 1 24 24 24 24 0 0 1 -24 24z" fill="#feb784"/><path d="m240 143.667h8v48h-8a24 24 0 0 1 -24-24 24 24 0 0 1 24-24z" fill="#feb784"/><path d="m341.68 200.01a99.15 99.15 0 0 1 -28.742 4.219h-16.938v16h16.938a114.963 114.963 0 0 0 33.382-4.906z" fill="#fec9a3"/><circle cx="284" cy="147.667" fill="#7a432a" r="12"/><circle cx="356" cy="147.667" fill="#7a432a" r="12"/><path d="m248 111.667h144v16h-144z" fill="#fec093"/></svg>